<svg xmlns="http://www.w3.org/2000/svg" viewBox="0 0 200 200" width="200" height="200" role="img" aria-label="Досягнення: Dawn Patrol (рівень: бронза)">
  <defs><path id="lf" d="M0,0 C 5,-3 7,-12 0,-18 C -7,-12 -5,-3 0,0 Z"/></defs>
  <g id="wreath-l" fill="#cd8a4e" stroke="#5e3a18" stroke-width="1.2"><path d="M87.2,155.5 Q 35,100 87.2,44.5" fill="none" stroke="#5e3a18" stroke-width="2.4"/><use href="#lf" transform="translate(87.2 155.5) rotate(-103.6) scale(0.72)"/><use href="#lf" transform="translate(67.3 146.7) rotate(-81.6) scale(0.94)"/><use href="#lf" transform="translate(52.2 131.0) rotate(-59.6) scale(1.11)"/><use href="#lf" transform="translate(44.0 110.9) rotate(-37.6) scale(1.21)"/><use href="#lf" transform="translate(44.0 89.1) rotate(-15.6) scale(1.21)"/><use href="#lf" transform="translate(52.2 69.0) rotate(6.4) scale(1.11)"/><use href="#lf" transform="translate(67.3 53.3) rotate(28.4) scale(0.94)"/><use href="#lf" transform="translate(87.2 44.5) rotate(50.4) scale(0.72)"/></g>
  <use href="#wreath-l" transform="matrix(-1 0 0 1 200 0)"/>
  <path d="M100,150 l9,9 -9,9 -9,-9 Z" fill="#c8823c" stroke="#5e3a18" stroke-width="2.5" stroke-linejoin="round"/>
  <circle cx="100" cy="100" r="50" fill="#c8823c" stroke="#5e3a18" stroke-width="4.5"/>
  <circle cx="100" cy="100" r="40" fill="#a5612c" stroke="#5e3a18" stroke-width="2.5"/>
  
  <g transform="translate(100 100) scale(0.82) translate(-100 -100)"><path d="M58,118 H142" fill="none" stroke="#5e3a18" stroke-width="4" stroke-linecap="round"/>
    <g stroke="#5e3a18" stroke-width="3.6" stroke-linecap="round" fill="none">
      <line x1="100" y1="62" x2="100" y2="78"/><line x1="68" y1="80" x2="77" y2="90"/><line x1="132" y1="80" x2="123" y2="90"/>
    </g>
    <path d="M76,118 A24,24 0 0 1 124,118 Z" fill="#ffe9d2" stroke="#5e3a18" stroke-width="3.6" stroke-linejoin="round"/></g>
</svg>