<svg xmlns="http://www.w3.org/2000/svg" viewBox="0 0 200 200" width="200" height="200" role="img" aria-label="Досягнення: 50 Deployments (рівень: рубін)">
  <defs>
    <radialGradient id="metal" cx="42%" cy="34%" r="72%">
      <stop offset="0%" stop-color="#ffd1d1"/><stop offset="40%" stop-color="#ef5350"/>
      <stop offset="76%" stop-color="#c62828"/><stop offset="100%" stop-color="#7f1212"/>
    </radialGradient>
    <radialGradient id="field" cx="50%" cy="42%" r="60%">
      <stop offset="0%" stop-color="#d23b3b"/><stop offset="100%" stop-color="#8f1717"/>
    </radialGradient>
    <linearGradient id="leaf" x1="0" y1="0" x2="0" y2="1">
      <stop offset="0%" stop-color="#e7d27a"/><stop offset="100%" stop-color="#b08d2a"/>
    </linearGradient>
    <path id="lf" d="M0,0 C 6,-3 8,-11 0,-17 C -8,-11 -6,-3 0,0 Z"/>
  </defs>
  <!-- ВЕЛИКА монета: заповнює кадр, як емблема BMW -->
  <circle cx="100" cy="100" r="95" fill="url(#metal)"/>
  <circle cx="100" cy="100" r="95" fill="none" stroke="#d4af37" stroke-width="5"/>
  <circle cx="100" cy="100" r="86" fill="none" stroke="#ffffff" stroke-opacity="0.22" stroke-width="2"/>
  <circle cx="100" cy="100" r="80" fill="url(#field)" stroke="#d4af37" stroke-width="2"/>
  <!-- лавровий вінок ВСЕРЕДИНІ монети (обрамляє центральний символ) -->
  <g transform="translate(100 94) scale(1.12) translate(-100 -100)">
    <g id="wreath-l" fill="url(#leaf)" stroke="#7a611d" stroke-width="1">
      <path d="M58,166 Q 33,120 50,68" fill="none" stroke="#7a611d" stroke-width="2.6"/>
      <use href="#lf" transform="translate(54,150) rotate(-40) scale(0.95)"/>
      <use href="#lf" transform="translate(46,134) rotate(-28)"/>
      <use href="#lf" transform="translate(42,116) rotate(-16)"/>
      <use href="#lf" transform="translate(42,98) rotate(-6)"/>
      <use href="#lf" transform="translate(46,80) rotate(6)"/>
      <use href="#lf" transform="translate(53,66) rotate(20) scale(0.85)"/>
    </g>
    <use href="#wreath-l" transform="matrix(-1 0 0 1 200 0)"/>
  </g>
  <!-- центральний символ — крупно, щоб чітко читалося -->
  <g transform="translate(100 98) scale(1.18) translate(-100 -100)">
    <path d="M82,64 L102,64 L102,92 L120,92 Q128,92 128,100 L128,108 L82,108 Z" fill="#ffe1b3" stroke="#d4af37" stroke-width="2.2" stroke-linejoin="round"/>
    <path d="M82,118 H120" fill="none" stroke="#d4af37" stroke-width="2.4" stroke-linecap="round"/>
  </g>
</svg>