<svg xmlns="http://www.w3.org/2000/svg" viewBox="0 0 200 200" width="200" height="200" role="img" aria-label="Досягнення: 50 Deployments (рівень: рубін)">
  <defs>
    <radialGradient id="metal" cx="42%" cy="34%" r="72%">
      <stop offset="0%" stop-color="#ffd1d1"/><stop offset="40%" stop-color="#ef5350"/>
      <stop offset="76%" stop-color="#c62828"/><stop offset="100%" stop-color="#7f1212"/>
    </radialGradient>
    <radialGradient id="field" cx="50%" cy="42%" r="60%">
      <stop offset="0%" stop-color="#d23b3b"/><stop offset="100%" stop-color="#8f1717"/>
    </radialGradient>
    <linearGradient id="leaf" x1="0" y1="0" x2="0" y2="1">
      <stop offset="0%" stop-color="#e7d27a"/><stop offset="100%" stop-color="#b08d2a"/>
    </linearGradient>
    <path id="lf" d="M0,0 C 6,-3 8,-11 0,-17 C -8,-11 -6,-3 0,0 Z"/>
  </defs>
  <!-- ВЕЛИКА монета: заповнює кадр, як емблема BMW -->
  <circle cx="100" cy="100" r="95" fill="url(#metal)"/>
  <circle cx="100" cy="100" r="95" fill="none" stroke="#d4af37" stroke-width="5"/>
  <circle cx="100" cy="100" r="86" fill="none" stroke="#ffffff" stroke-opacity="0.22" stroke-width="2"/>
  <circle cx="100" cy="100" r="80" fill="url(#field)" stroke="#d4af37" stroke-width="2"/>
  <!-- лавровий вінок ВСЕРЕДИНІ монети (обрамляє центральний символ) -->
  <g transform="translate(100 93) scale(1.15) translate(-100 -100)">
    <g id="wreath-l" fill="url(#leaf)" stroke="#7a611d" stroke-width="0.8">
      <path d="M58,168 Q 31,118 52,62" fill="none" stroke="#7a611d" stroke-width="2.8"/>
      <use href="#lf" transform="translate(55,158) rotate(-48) scale(0.8)"/>
      <use href="#lf" transform="translate(49,147) rotate(-40) scale(0.95)"/>
      <use href="#lf" transform="translate(44,135) rotate(-32)"/>
      <use href="#lf" transform="translate(41,123) rotate(-22)"/>
      <use href="#lf" transform="translate(39,111) rotate(-13)"/>
      <use href="#lf" transform="translate(40,99) rotate(-4)"/>
      <use href="#lf" transform="translate(43,87) rotate(6)"/>
      <use href="#lf" transform="translate(47,76) rotate(16)"/>
      <use href="#lf" transform="translate(53,65) rotate(26) scale(0.82)"/>
      <circle cx="50" cy="141" r="2.4"/><circle cx="46" cy="117" r="2.4"/>
      <circle cx="47" cy="93" r="2.4"/><circle cx="52" cy="73" r="2.2"/>
    </g>
    <use href="#wreath-l" transform="matrix(-1 0 0 1 200 0)"/>
  </g>
  <!-- центральний символ — крупно, щоб чітко читалося -->
  <g transform="translate(100 100) scale(1.22) translate(-100 -100)">
    <g fill="#ffe1b3" stroke="#d4af37" stroke-width="3" stroke-linejoin="round" stroke-linecap="round">
      <path d="M-2.8,-30 L2.8,-30 L2.8,16 L9,25 L9,32 L-3.5,32 L-3.5,19 L-2.8,16 Z" transform="translate(100 101) rotate(-32)"/>
      <path d="M-2.8,-30 L2.8,-30 L2.8,16 L9,25 L9,32 L-3.5,32 L-3.5,19 L-2.8,16 Z" transform="translate(100 101) rotate(32)"/>
    </g>
  </g>
</svg>