<svg xmlns="http://www.w3.org/2000/svg" viewBox="0 0 200 200" width="200" height="200" role="img" aria-label="Досягнення: First Contact (рівень: бронза)">
  <defs><path id="lf" d="M0,0 C 5,-3 7,-12 0,-18 C -7,-12 -5,-3 0,0 Z"/></defs>
  <g id="wreath-l" fill="#cd8a4e" stroke="#5e3a18" stroke-width="1.2"><path d="M87.2,155.5 Q 35,100 87.2,44.5" fill="none" stroke="#5e3a18" stroke-width="2.4"/><use href="#lf" transform="translate(87.2 155.5) rotate(-103.6) scale(0.72)"/><use href="#lf" transform="translate(67.3 146.7) rotate(-81.6) scale(0.94)"/><use href="#lf" transform="translate(52.2 131.0) rotate(-59.6) scale(1.11)"/><use href="#lf" transform="translate(44.0 110.9) rotate(-37.6) scale(1.21)"/><use href="#lf" transform="translate(44.0 89.1) rotate(-15.6) scale(1.21)"/><use href="#lf" transform="translate(52.2 69.0) rotate(6.4) scale(1.11)"/><use href="#lf" transform="translate(67.3 53.3) rotate(28.4) scale(0.94)"/><use href="#lf" transform="translate(87.2 44.5) rotate(50.4) scale(0.72)"/></g>
  <use href="#wreath-l" transform="matrix(-1 0 0 1 200 0)"/>
  <path d="M100,150 l9,9 -9,9 -9,-9 Z" fill="#c8823c" stroke="#5e3a18" stroke-width="2.5" stroke-linejoin="round"/>
  <circle cx="100" cy="100" r="50" fill="#c8823c" stroke="#5e3a18" stroke-width="4.5"/>
  <circle cx="100" cy="100" r="40" fill="#a5612c" stroke="#5e3a18" stroke-width="2.5"/>
  
  <g transform="translate(100 100) scale(0.82) translate(-100 -100)"><circle cx="100" cy="100" r="30" fill="none" stroke="#5e3a18" stroke-width="4"/>
    <path d="M100,56 V72 M100,128 V144 M56,100 H72 M128,100 H144" fill="none" stroke="#5e3a18" stroke-width="4" stroke-linecap="round"/>
    <circle cx="100" cy="100" r="12" fill="#ffe9d2" stroke="#5e3a18" stroke-width="4"/></g>
</svg>