<svg xmlns="http://www.w3.org/2000/svg" viewBox="0 0 200 200" width="200" height="200" role="img" aria-label="Досягнення: Flood Lord (рівень: рубін)">
  <defs><path id="lf" d="M0,0 C 5,-3 7,-12 0,-18 C -7,-12 -5,-3 0,0 Z"/></defs>
  <g id="wreath-l" fill="#f3c948" stroke="#7a5d12" stroke-width="1.2"><path d="M87.2,155.5 Q 35,100 87.2,44.5" fill="none" stroke="#7a5d12" stroke-width="2.4"/><use href="#lf" transform="translate(87.2 155.5) rotate(-103.6) scale(0.72)"/><use href="#lf" transform="translate(67.3 146.7) rotate(-81.6) scale(0.94)"/><use href="#lf" transform="translate(52.2 131.0) rotate(-59.6) scale(1.11)"/><use href="#lf" transform="translate(44.0 110.9) rotate(-37.6) scale(1.21)"/><use href="#lf" transform="translate(44.0 89.1) rotate(-15.6) scale(1.21)"/><use href="#lf" transform="translate(52.2 69.0) rotate(6.4) scale(1.11)"/><use href="#lf" transform="translate(67.3 53.3) rotate(28.4) scale(0.94)"/><use href="#lf" transform="translate(87.2 44.5) rotate(50.4) scale(0.72)"/></g>
  <use href="#wreath-l" transform="matrix(-1 0 0 1 200 0)"/>
  <path d="M100,150 l9,9 -9,9 -9,-9 Z" fill="#e23b3b" stroke="#7f1212" stroke-width="2.5" stroke-linejoin="round"/>
  <circle cx="100" cy="100" r="50" fill="#e23b3b" stroke="#7f1212" stroke-width="4.5"/>
  <circle cx="100" cy="100" r="40" fill="#c62828" stroke="#7f1212" stroke-width="2.5"/>
  <circle cx="100" cy="100" r="50" fill="none" stroke="#d4af37" stroke-width="2.5"/>
  <g transform="translate(100 100) scale(0.82) translate(-100 -100)"><path d="M82,72 H118 Q133,72 133,88 V102 Q133,118 118,118 H98 L83,132 L88,118 H82 Q67,118 67,102 V88 Q67,72 82,72 Z" fill="#ffe1b3" stroke="#7f1212" stroke-width="4" stroke-linejoin="round"/>
    <circle cx="83" cy="95" r="5.5" fill="#7f1212"/><circle cx="100" cy="95" r="5.5" fill="#7f1212"/><circle cx="117" cy="95" r="5.5" fill="#7f1212"/></g>
</svg>