<svg xmlns="http://www.w3.org/2000/svg" viewBox="0 0 200 200" width="200" height="200" role="img" aria-label="Досягнення: Flooder (рівень: срібло)">
  <defs>
    <radialGradient id="metal" cx="42%" cy="34%" r="72%">
      <stop offset="0%" stop-color="#ffffff"/><stop offset="40%" stop-color="#e8edf2"/>
      <stop offset="76%" stop-color="#c2cbd4"/><stop offset="100%" stop-color="#8b97a3"/>
    </radialGradient>
    <radialGradient id="field" cx="50%" cy="42%" r="60%">
      <stop offset="0%" stop-color="#cdd5dd"/><stop offset="100%" stop-color="#9aa6b2"/>
    </radialGradient>
    <linearGradient id="leaf" x1="0" y1="0" x2="0" y2="1">
      <stop offset="0%" stop-color="#dfe6ec"/><stop offset="100%" stop-color="#9aa6b2"/>
    </linearGradient>
    <path id="lf" d="M0,0 C 6,-3 8,-11 0,-17 C -8,-11 -6,-3 0,0 Z"/>
  </defs>
  <!-- ВЕЛИКА монета: заповнює кадр, як емблема BMW -->
  <circle cx="100" cy="100" r="95" fill="url(#metal)"/>
  <circle cx="100" cy="100" r="95" fill="none" stroke="#5b6670" stroke-width="5"/>
  <circle cx="100" cy="100" r="86" fill="none" stroke="#ffffff" stroke-opacity="0.22" stroke-width="2"/>
  <circle cx="100" cy="100" r="80" fill="url(#field)" stroke="#5b6670" stroke-width="2"/>
  <!-- лавровий вінок ВСЕРЕДИНІ монети (обрамляє центральний символ) -->
  <g transform="translate(100 94) scale(1.12) translate(-100 -100)">
    <g id="wreath-l" fill="url(#leaf)" stroke="#5b6670" stroke-width="1">
      <path d="M58,166 Q 33,120 50,68" fill="none" stroke="#5b6670" stroke-width="2.6"/>
      <use href="#lf" transform="translate(54,150) rotate(-40) scale(0.95)"/>
      <use href="#lf" transform="translate(46,134) rotate(-28)"/>
      <use href="#lf" transform="translate(42,116) rotate(-16)"/>
      <use href="#lf" transform="translate(42,98) rotate(-6)"/>
      <use href="#lf" transform="translate(46,80) rotate(6)"/>
      <use href="#lf" transform="translate(53,66) rotate(20) scale(0.85)"/>
    </g>
    <use href="#wreath-l" transform="matrix(-1 0 0 1 200 0)"/>
  </g>
  <!-- центральний символ — крупно, щоб чітко читалося -->
  <g transform="translate(100 98) scale(1.18) translate(-100 -100)">
    <path d="M84,76 H116 Q130,76 130,90 V102 Q130,116 116,116 H98 L86,128 L90,116 H84 Q70,116 70,102 V90 Q70,76 84,76 Z" fill="#ffffff" stroke="#5b6670" stroke-width="2.4" stroke-linejoin="round"/>
    <circle cx="84" cy="96" r="4" fill="#5b6670"/><circle cx="100" cy="96" r="4" fill="#5b6670"/><circle cx="116" cy="96" r="4" fill="#5b6670"/>
  </g>
</svg>