<svg xmlns="http://www.w3.org/2000/svg" viewBox="0 0 200 200" width="200" height="200" role="img" aria-label="Досягнення: Flood Lord (рівень: рубін)">
  <defs>
    <radialGradient id="metal" cx="42%" cy="34%" r="72%">
      <stop offset="0%" stop-color="#ffd1d1"/><stop offset="40%" stop-color="#ef5350"/>
      <stop offset="76%" stop-color="#c62828"/><stop offset="100%" stop-color="#7f1212"/>
    </radialGradient>
    <radialGradient id="field" cx="50%" cy="42%" r="60%">
      <stop offset="0%" stop-color="#d23b3b"/><stop offset="100%" stop-color="#8f1717"/>
    </radialGradient>
    <linearGradient id="leaf" x1="0" y1="0" x2="0" y2="1">
      <stop offset="0%" stop-color="#e7d27a"/><stop offset="100%" stop-color="#b08d2a"/>
    </linearGradient>
    <path id="lf" d="M0,0 C 6,-3 8,-11 0,-17 C -8,-11 -6,-3 0,0 Z"/>
  </defs>
  <g id="wreath-l" fill="url(#leaf)" stroke="#7a611d" stroke-width="0.6">
    <path d="M58,166 Q 33,120 50,68" fill="none" stroke="#7a611d" stroke-width="2.2"/>
    <use href="#lf" transform="translate(54,150) rotate(-40) scale(0.95)"/>
    <use href="#lf" transform="translate(46,134) rotate(-28)"/>
    <use href="#lf" transform="translate(42,116) rotate(-16)"/>
    <use href="#lf" transform="translate(42,98) rotate(-6)"/>
    <use href="#lf" transform="translate(46,80) rotate(6)"/>
    <use href="#lf" transform="translate(53,66) rotate(20) scale(0.85)"/>
  </g>
  <use href="#wreath-l" transform="matrix(-1 0 0 1 200 0)"/>
  <circle cx="100" cy="172" r="5.5" fill="url(#metal)" stroke="#7a611d" stroke-width="1"/>
  <circle cx="100" cy="100" r="60" fill="url(#metal)"/>
  <circle cx="100" cy="100" r="60" fill="none" stroke="#d4af37" stroke-width="3.5"/>
  <circle cx="100" cy="100" r="52" fill="none" stroke="#ffffff" stroke-opacity="0.25" stroke-width="1.6"/>
  <circle cx="100" cy="100" r="46" fill="url(#field)" stroke="#d4af37" stroke-width="1.2"/>
  <path d="M82,80 L82,64 L92,73 L100,60 L108,73 L118,64 L118,80 Z" fill="#ffe1b3" stroke="#d4af37" stroke-width="2.2" stroke-linejoin="round"/>
  <path d="M84,86 H116 Q130,86 130,100 V112 Q130,126 116,126 H98 L86,138 L90,126 H84 Q70,126 70,112 V100 Q70,86 84,86 Z" fill="#ffe1b3" stroke="#d4af37" stroke-width="2.4" stroke-linejoin="round"/>
  <circle cx="84" cy="106" r="4" fill="#d4af37"/> <circle cx="100" cy="106" r="4" fill="#d4af37"/> <circle cx="116" cy="106" r="4" fill="#d4af37"/>
</svg>