<svg xmlns="http://www.w3.org/2000/svg" viewBox="0 0 200 200" width="200" height="200" role="img" aria-label="Досягнення: Recruiter (рівень: срібло)">
  <defs><path id="lf" d="M0,0 C 5,-3 7,-12 0,-18 C -7,-12 -5,-3 0,0 Z"/></defs>
  <g id="wreath-l" fill="#d3dbe2" stroke="#566270" stroke-width="1.2"><path d="M87.2,155.5 Q 35,100 87.2,44.5" fill="none" stroke="#566270" stroke-width="2.4"/><use href="#lf" transform="translate(87.2 155.5) rotate(-103.6) scale(0.72)"/><use href="#lf" transform="translate(67.3 146.7) rotate(-81.6) scale(0.94)"/><use href="#lf" transform="translate(52.2 131.0) rotate(-59.6) scale(1.11)"/><use href="#lf" transform="translate(44.0 110.9) rotate(-37.6) scale(1.21)"/><use href="#lf" transform="translate(44.0 89.1) rotate(-15.6) scale(1.21)"/><use href="#lf" transform="translate(52.2 69.0) rotate(6.4) scale(1.11)"/><use href="#lf" transform="translate(67.3 53.3) rotate(28.4) scale(0.94)"/><use href="#lf" transform="translate(87.2 44.5) rotate(50.4) scale(0.72)"/></g>
  <use href="#wreath-l" transform="matrix(-1 0 0 1 200 0)"/>
  <path d="M100,150 l9,9 -9,9 -9,-9 Z" fill="#cdd6df" stroke="#566270" stroke-width="2.5" stroke-linejoin="round"/>
  <circle cx="100" cy="100" r="50" fill="#cdd6df" stroke="#566270" stroke-width="4.5"/>
  <circle cx="100" cy="100" r="40" fill="#aab4c0" stroke="#566270" stroke-width="2.5"/>
  
  <g transform="translate(100 100) scale(0.82) translate(-100 -100)"><path d="M101,126 Q101,103 116,103 Q131,103 131,126 Z" fill="#ffffff" stroke="#566270" stroke-width="3.2" stroke-linejoin="round"/>
    <circle cx="116" cy="83" r="9" fill="#ffffff" stroke="#566270" stroke-width="3.2"/>
    <path d="M68,128 Q68,102 90,102 Q112,102 112,128 Z" fill="#ffffff" stroke="#566270" stroke-width="3.6" stroke-linejoin="round"/>
    <circle cx="90" cy="84" r="12" fill="#ffffff" stroke="#566270" stroke-width="3.6"/></g>
</svg>